<svg aria-hidden="true" style="position:absolute;width:0;height:0;overflow:hidden" xmlns="http://www.w3.org/2000/svg">
  <defs>
    <symbol id="icon-twitter" viewBox="0 0 40 32">
      <path fill="#707070" style="fill:var(--color1, #707070)" d="M37.592 4.638a15.033 15.033 0 0 1-3.477 3.347v1.034c.011 6.147-2.445 12.041-6.815 16.36s-10.291 6.704-16.435 6.619A22.994 22.994 0 0 1 .622 29.629a.47.47 0 0 1-.282-.433v-.207a.49.49 0 0 1 .489-.489 16.649 16.649 0 0 0 9.623-3.46 8.214 8.214 0 0 1-7.311-4.814.49.49 0 0 1 .488-.677c.96.097 1.93.007 2.857-.263a8.197 8.197 0 0 1-6.484-7.164.491.491 0 0 1 .677-.489 7.504 7.504 0 0 0 2.97.639A8.049 8.049 0 0 1 .435 2.983a1.013 1.013 0 0 1 1.71-.338 23.225 23.225 0 0 0 15.807 7.296 7.546 7.546 0 0 1-.226-1.88c.056-3.323 2.113-6.284 5.206-7.496s6.613-.435 8.909 1.967A16.302 16.302 0 0 0 36.333.971a.317.317 0 0 1 .338 0 .317.317 0 0 1 0 .338 8.22 8.22 0 0 1-3.308 3.761 16.093 16.093 0 0 0 3.759-.903.302.302 0 0 1 .338 0 .323.323 0 0 1 .132.471z"/>
    </symbol>
    <symbol id="icon-bigarrow_right" viewBox="0 0 80 32">
      <path fill="#707070" style="fill:var(--color1, #707070)" d="M0 15.972v-4a2 2 0 0 1 2.001-2H64.02v-8a2 2 0 0 1 3.401-1.4l12.004 12a2.04 2.04 0 0 1 0 2.84l-12.004 12a2.002 2.002 0 0 1-3.401-1.44v-8H2.001a2 2 0 0 1-2.001-2z"/>
    </symbol>
    <symbol id="icon-arrow_right" viewBox="0 0 20 32">
      <path d="M.237 3.074a.802.802 0 0 1 0-1.136L1.933.242a.766.766 0 0 1 1.12 0l14.702 14.702a1.2 1.2 0 0 1 .352.848v.416a1.2 1.2 0 0 1-.352.848L3.053 31.758a.766.766 0 0 1-1.12 0L.237 30.062a.802.802 0 0 1 0-1.136L13.163 16 .237 3.074z"/>
    </symbol>
    <symbol id="icon-arrow_down" viewBox="0 0 51 32">
      <path d="M46.282.379a1.28 1.28 0 0 1 1.818 0l2.713 2.713a1.226 1.226 0 0 1 0 1.792L27.29 28.407a1.92 1.92 0 0 1-1.357.563h-.665a1.92 1.92 0 0 1-1.357-.563L.388 4.884a1.23 1.23 0 0 1 0-1.792L3.101.379a1.28 1.28 0 0 1 1.818 0l20.682 20.682L46.283.379z"/>
    </symbol>
    <symbol id="icon-menu" viewBox="0 0 41 32">
      <path stroke-width=".377" d="M3.064 5.412h35.281c.649 0 1.176-.791 1.175-1.765s-.528-1.765-1.177-1.765H3.062c-.649 0-1.176.791-1.175 1.765s.528 1.765 1.177 1.765zM38.344 14.235H3.063c-.649 0-1.176.791-1.175 1.765s.528 1.765 1.177 1.765h35.281c.649 0 1.176-.791 1.175-1.765s-.527-1.765-1.177-1.765zM38.344 26.588h-23.52c-.649 0-1.176.791-1.175 1.765s.528 1.765 1.177 1.765h23.52c.649 0 1.176-.791 1.175-1.765s-.527-1.765-1.177-1.765z"/>
    </symbol>
    <symbol id="icon-padlock" viewBox="0 0 32 32">
      <path d="M28.154 12.148h-2.439V9.762C25.715 4.371 21.359 0 16 0S6.273 4.371 6.273 9.762v2.386H3.846a1.63 1.63 0 0 0-1.62 1.631V30.37a1.63 1.63 0 0 0 1.62 1.631h24.308a1.63 1.63 0 0 0 1.62-1.631V13.779a1.63 1.63 0 0 0-1.621-1.631zM7.488 9.762c0-2.36.974-4.491 2.511-6.038C11.537 2.178 13.654 1.223 16 1.223s4.463.955 6.001 2.501a8.544 8.544 0 0 1 2.498 6.038v2.386H7.488V9.762zm20.666 21.015H3.846a.412.412 0 0 1-.405-.408V13.778c0-.221.186-.408.405-.408h24.308c.219 0 .405.186.405.408v16.591a.412.412 0 0 1-.405.408z"/>
      <path d="M16 18.547a2.844 2.844 0 0 0-2.836 2.853c0 1.366.954 2.506 2.228 2.786v2.921a.609.609 0 1 0 1.216 0v-2.921a2.85 2.85 0 0 0 2.228-2.786A2.844 2.844 0 0 0 16 18.547zm0 4.484c-.894 0-1.62-.732-1.62-1.631s.727-1.631 1.62-1.631c.894 0 1.62.732 1.62 1.631s-.727 1.631-1.62 1.631z"/>
    </symbol>
    <symbol id="icon-return" viewBox="0 0 32 32">
      <path d="m4.279 13.319.094.118.029-.148C5.667 6.92 11.295 2.102 18.031 2.102c7.663 0 13.899 6.235 13.899 13.899 0 7.64-6.197 13.861-13.829 13.899v-2.009c6.524-.038 11.82-5.357 11.82-11.889 0-6.556-5.334-11.89-11.89-11.89-5.934 0-10.851 4.373-11.735 10.063l-.021.134 4.796-2.398.899 1.797L5.586 16.9a1.008 1.008 0 0 1-1.234-.271L.098 11.311l1.569-1.256 2.611 3.265z"/>
    </symbol>
    <symbol id="icon-shoppe" viewBox="0 0 147 32">
      <path fill="#a18a68" style="fill:var(--color3, #a18a68)" d="M14.319 6.064c-.13-.052-.286-.143-.469-.273s-.443-.247-.781-.352c-.339-.13-.768-.234-1.289-.313s-1.185-.091-1.992-.039V1.142c1.146.026 2.305.156 3.477.391 1.198.208 2.161.547 2.891 1.016-.156.339-.339.716-.547 1.133-.208.391-.404.768-.586 1.133-.182.339-.339.625-.469.859s-.208.365-.234.391zM.842 9.189c0-1.146.195-2.174.586-3.086s.911-1.706 1.563-2.383a7.34 7.34 0 0 1 2.344-1.641 9.918 9.918 0 0 1 2.852-.82v4.102a4.281 4.281 0 0 0-2.07 1.523c-.547.703-.82 1.419-.82 2.148 0 1.016.273 1.836.82 2.461s1.237 1.172 2.07 1.641v4.453a60.647 60.647 0 0 1-2.578-1.328c-.859-.495-1.641-1.068-2.344-1.719s-1.289-1.406-1.758-2.266c-.443-.859-.664-1.888-.664-3.086zm.625 15.938c.365.208.82.417 1.367.625.573.182 1.159.365 1.758.547.599.156 1.198.287 1.797.391s1.159.156 1.68.156h.117v3.711h-.078c-.625 0-1.276-.039-1.953-.117-.651-.052-1.315-.156-1.992-.312s-1.328-.365-1.953-.625a6.753 6.753 0 0 1-1.563-1.016l.82-3.359zm8.32-11.211c.859.391 1.732.807 2.617 1.25.911.443 1.732.99 2.461 1.641.729.625 1.328 1.393 1.797 2.305s.703 2.044.703 3.399c0 .937-.182 1.849-.547 2.734a7.803 7.803 0 0 1-1.484 2.422c-.625.703-1.406 1.302-2.344 1.797s-2.005.82-3.203.976v-3.75c2.135-.521 3.203-1.94 3.203-4.258 0-.911-.299-1.667-.898-2.266s-1.367-1.159-2.305-1.68v-4.57z"/>
      <path style="fill:var(--color4, #000)" d="M44.241 1.611V30.4h-4.688V17.431H28.694v-3.203h10.859V1.611h4.688zm-21.914 0h4.766V30.4h-4.766V1.611zM50.92 15.869c0-2.318.273-4.362.82-6.133.573-1.797 1.354-3.307 2.344-4.531 1.016-1.25 2.201-2.201 3.555-2.852 1.38-.677 2.878-1.068 4.492-1.172v3.906c-.885.104-1.719.378-2.5.82S58.173 7.001 57.6 7.86c-.573.859-1.029 1.953-1.367 3.281s-.521 2.904-.547 4.727c.026 1.849.208 3.437.547 4.766.339 1.302.794 2.396 1.367 3.281.599.885 1.289 1.562 2.07 2.031a6.05 6.05 0 0 0 2.461.781v3.867a12.212 12.212 0 0 1-4.453-1.133 10.839 10.839 0 0 1-3.594-2.852c-.99-1.25-1.771-2.773-2.344-4.57-.547-1.797-.82-3.854-.82-6.172zM63.694 1.181c1.588.078 3.06.456 4.414 1.133 1.38.677 2.565 1.641 3.555 2.891 1.016 1.224 1.81 2.734 2.383 4.531.573 1.771.859 3.815.859 6.133s-.286 4.375-.859 6.172c-.573 1.797-1.367 3.32-2.383 4.57-.99 1.224-2.161 2.175-3.516 2.852-1.354.651-2.839 1.029-4.453 1.133v-3.867a6.592 6.592 0 0 0 2.5-.82c.781-.469 1.458-1.133 2.031-1.992.573-.885 1.029-1.979 1.367-3.281.339-1.328.521-2.917.547-4.766-.026-1.849-.208-3.424-.547-4.727-.339-1.328-.807-2.422-1.406-3.281-.573-.885-1.25-1.55-2.031-1.992a5.743 5.743 0 0 0-2.461-.82V1.183zm17.773.43h4.688V30.4h-4.688V1.611zm8.281 0c1.224 0 2.435.195 3.633.586s2.266.977 3.203 1.758a8.764 8.764 0 0 1 2.305 2.852c.599 1.094.898 2.331.898 3.711 0 1.458-.247 2.786-.742 3.984-.495 1.172-1.185 2.161-2.07 2.969s-1.953 1.432-3.203 1.875c-1.25.443-2.63.664-4.141.664h-1.875v-3.438h2.695c.573 0 1.133-.091 1.68-.273.573-.208 1.094-.534 1.563-.977s.846-1.055 1.133-1.836c.286-.807.43-1.797.43-2.969 0-.469-.065-1.003-.195-1.602a4.346 4.346 0 0 0-.82-1.758c-.391-.573-.951-1.042-1.68-1.406-.729-.391-1.693-.586-2.891-.586h-1.914V1.61h1.992zm15.352 0h4.688V30.4H105.1V1.611zm8.281 0c1.224 0 2.435.195 3.633.586s2.266.977 3.203 1.758a8.764 8.764 0 0 1 2.305 2.852c.599 1.094.898 2.331.898 3.711 0 1.458-.247 2.786-.742 3.984-.495 1.172-1.185 2.161-2.07 2.969s-1.953 1.432-3.203 1.875c-1.25.443-2.63.664-4.141.664h-1.875v-3.438h2.695c.573 0 1.133-.091 1.68-.273.573-.208 1.094-.534 1.563-.977s.846-1.055 1.133-1.836c.286-.807.43-1.797.43-2.969 0-.469-.065-1.003-.195-1.602a4.346 4.346 0 0 0-.82-1.758c-.391-.573-.951-1.042-1.68-1.406-.729-.391-1.693-.586-2.891-.586h-1.914V1.61h1.992zm15.508 0h4.766V30.4h-4.766V1.611zm16.797 15.82h-10.43v-3.203h10.43v3.203zm-10.43 9.414h11.64V30.4h-11.64v-3.555zm11.641-25.234v3.555h-11.64V1.611h11.64z"/>
    </symbol>
    <symbol id="icon-share" viewBox="0 0 32 32">
      <path d="M29.646 5.333a4.334 4.334 0 1 1-8.668-.002 4.334 4.334 0 0 1 8.668.003z"/>
      <path d="M25.312 10.667c-2.941 0-5.333-2.392-5.333-5.333S22.371.001 25.312.001c2.942 0 5.333 2.392 5.333 5.333s-2.392 5.333-5.333 5.333zm0-8.667c-1.839 0-3.333 1.496-3.333 3.333s1.495 3.334 3.333 3.334 3.333-1.496 3.333-3.333a3.337 3.337 0 0 0-3.333-3.333zM29.646 26.666a4.333 4.333 0 1 1-8.666 0 4.333 4.333 0 0 1 8.666 0z"/>
      <path d="M25.312 31.999c-2.941 0-5.333-2.392-5.333-5.333s2.392-5.333 5.333-5.333c2.942 0 5.333 2.392 5.333 5.333s-2.392 5.333-5.333 5.333zm0-8.666c-1.839 0-3.333 1.496-3.333 3.334S23.474 30 25.312 30s3.333-1.496 3.333-3.333a3.338 3.338 0 0 0-3.333-3.334zM10.979 16.001a4.333 4.333 0 1 1-8.666 0 4.333 4.333 0 0 1 8.666 0z"/>
      <path d="M6.646 21.334c-2.941 0-5.333-2.392-5.333-5.333s2.392-5.333 5.333-5.333c2.941 0 5.334 2.392 5.334 5.333s-2.392 5.333-5.333 5.333zm0-8.667c-1.839 0-3.333 1.496-3.333 3.333s1.495 3.333 3.333 3.333c1.839 0 3.334-1.496 3.334-3.333s-1.495-3.333-3.333-3.333z"/>
      <path d="M9.794 15.36a1.33 1.33 0 0 1-1.16-.673 1.336 1.336 0 0 1 .499-1.819l12.372-7.053a1.33 1.33 0 0 1 1.819.499c.364.639.14 1.453-.499 1.819l-12.372 7.053a1.322 1.322 0 0 1-.658.175zM22.164 26.36c-.224 0-.451-.056-.659-.175L9.133 19.132a1.335 1.335 0 0 1-.499-1.819 1.332 1.332 0 0 1 1.819-.499l12.372 7.053a1.334 1.334 0 0 1-.661 2.492z"/>
    </symbol>
    <symbol id="icon-shopping_cart" viewBox="0 0 34 32">
      <path d="M11.069 20.688h17.002a.935.935 0 0 0 .901-.68l3.75-13.125a.937.937 0 0 0-.902-1.195H8.905l-.67-3.016a.937.937 0 0 0-.915-.734H1.695a.938.938 0 0 0 0 1.876h4.873l3.385 15.232a2.817 2.817 0 0 0-1.695 2.581 2.815 2.815 0 0 0 2.813 2.812h17a.938.938 0 1 0 0-1.875h-17a.938.938 0 0 1-.003-1.874zM30.578 7.563l-3.214 11.25H11.823l-2.5-11.25h21.255z"/>
      <path d="M10.134 27.25c0 1.551 1.262 2.813 2.813 2.813s2.813-1.262 2.813-2.813c0-1.551-1.262-2.812-2.813-2.812s-2.813 1.262-2.813 2.812zm2.812-.937c.517 0 .938.421.938.937s-.421.938-.938.938-.938-.421-.938-.938c0-.517.421-.937.938-.937zM23.384 27.25c0 1.551 1.262 2.813 2.813 2.813s2.812-1.262 2.812-2.813-1.262-2.812-2.812-2.812a2.816 2.816 0 0 0-2.813 2.812zm2.812-.937a.938.938 0 0 1 0 1.875.938.938 0 0 1 0-1.875z"/>
    </symbol>
    <symbol id="icon-cross" viewBox="0 0 32 32">
      <path stroke-width="6" d="M4 4.367 27.633 28M4 27.633 27.633 4"/>
    </symbol>
    <symbol id="icon-accepted" viewBox="0 0 32 32">
      <path d="M20.403.597A.579.579 0 0 0 20 .43H3a.57.57 0 0 0-.57.57v30a.57.57 0 0 0 .57.57h21a.57.57 0 0 0 .57-.57v-.957A6.08 6.08 0 0 0 30.07 24a6.079 6.079 0 0 0-5.5-6.043V5a.58.58 0 0 0-.167-.403l-4-4zm.167 3.833V2.376l2.054 2.054H20.57zm-17 26V1.57h15.86V5a.57.57 0 0 0 .57.57h3.43v12.387a6.07 6.07 0 0 0 0 12.086v.387H3.57zM24 28.93a4.929 4.929 0 0 1-4.836-5.892 4.93 4.93 0 0 1 9.765.963 4.94 4.94 0 0 1-4.93 4.93z"/>
      <path d="M24.403 26.403a.572.572 0 0 1-.696.086l-2.5-1.5a.563.563 0 0 1-.271-.572.576.576 0 0 1 .425-.469.572.572 0 0 1 .431.064l2.118 1.271 3.185-3.185a.579.579 0 0 1 .403-.167.58.58 0 0 1 .218.043l-3.315 4.43zm0 0 3.5-3.5a.579.579 0 0 0 .168-.403.562.562 0 0 0-.168-.403l-3.5 4.306z"/>
    </symbol>
    <symbol id="icon-delivery_box" viewBox="0 0 32 32">
      <path d="M15.989 32.001a.659.659 0 0 1-.308-.076l-15.323-8a.668.668 0 0 1-.359-.591v-15a.668.668 0 0 1 .964-.596l15.323 7.667a.668.668 0 0 1 .368.596v15.333a.668.668 0 0 1-.665.667zM1.333 22.93l13.989 7.304V16.413l-13.989-7V22.93z"/>
      <path d="M16.01 32a.663.663 0 0 1-.666-.667V16c0-.252.143-.483.368-.596l15.323-7.667a.666.666 0 0 1 .965.596v15a.668.668 0 0 1-.359.591l-15.323 8a.659.659 0 0 1-.308.076zm.667-15.588v13.821l13.989-7.304V9.412l-13.989 7zm14.656 6.921z"/>
      <path d="M.666 9.001a.667.667 0 0 1-.298-1.263L15.712.071a.671.671 0 0 1 .596 0l15.323 7.667a.668.668 0 0 1 .299.895.67.67 0 0 1-.895.299L16.011 1.413.966 8.93a.664.664 0 0 1-.299.071z"/>
      <path d="M24 20a.667.667 0 0 1-.667-.667v-6.921L8.378 4.929c-.329-.164-.463-.565-.297-.895s.565-.461.895-.299l15.323 7.667a.672.672 0 0 1 .368.597v7.333a.667.667 0 0 1-.667.667z"/>
    </symbol>
    <symbol id="icon-search" viewBox="0 0 32 32">
      <path fill="#707070" style="fill:var(--color1, #707070)" d="m24.662 22.143 7.11 7.12a.89.89 0 0 1-.035 1.228l-1.244 1.246a.886.886 0 0 1-1.262 0l-7.11-7.12a4.602 4.602 0 0 1-.533-.641l-1.333-1.78a12.43 12.43 0 0 1-7.767 2.723c-5.816.02-10.871-3.998-12.171-9.675S1.819 3.745 7.063 1.226c5.244-2.519 11.532-1.064 15.14 3.505s3.574 11.031-.082 15.561l1.777 1.228c.278.178.534.387.764.623zM3.599 12.46c0 4.915 3.979 8.9 8.887 8.9 2.357 0 4.618-.938 6.284-2.607s2.603-3.933 2.603-6.293c0-4.915-3.979-8.9-8.887-8.9s-8.887 3.984-8.887 8.9z"/>
    </symbol>
    <symbol id="icon-facebook" viewBox="0 0 19 32">
      <path d="M16.889 5.333h-5.333c-.982 0-1.778.796-1.778 1.778v5.333h7.111a.622.622 0 0 1 .604.818l-1.316 3.911a.888.888 0 0 1-.836.604H9.777V31.11a.889.889 0 0 1-.889.889H4.444a.889.889 0 0 1-.889-.889V17.777H.888a.889.889 0 0 1-.889-.889v-3.556c0-.491.398-.889.889-.889h2.667V7.11a7.111 7.111 0 0 1 7.111-7.111h6.222c.491 0 .889.398.889.889v3.556a.889.889 0 0 1-.889.889z"/>
    </symbol>
    <symbol id="icon-instagram" viewBox="0 0 32 32">
      <path fill="#707070" style="fill:var(--color1, #707070)" d="M23.111 0H8.889A8.89 8.89 0 0 0 0 8.889v14.222A8.89 8.89 0 0 0 8.889 32h14.222A8.89 8.89 0 0 0 32 23.111V8.889A8.89 8.89 0 0 0 23.111 0zm5.778 23.111a5.796 5.796 0 0 1-5.778 5.778H8.889a5.796 5.796 0 0 1-5.778-5.778V8.889a5.796 5.796 0 0 1 5.778-5.778h14.222a5.796 5.796 0 0 1 5.778 5.778v14.222zM24.444 9.333a1.778 1.778 0 1 1 0-3.556 1.778 1.778 0 0 1 0 3.556zM16 8a7.982 7.982 0 0 1 8 8 8 8 0 1 1-8-8zm-4.889 8a4.89 4.89 0 1 0 9.778 0 4.89 4.89 0 0 0-9.778 0z"/>
    </symbol>
  </defs>
</svg>
